<?xml version="1.0" encoding="UTF-8"?>
<svg id="Livello_2" xmlns="http://www.w3.org/2000/svg" viewBox="0 0 24.71 26.21">
  <defs>
    <style>
      .cls-1 {
        letter-spacing: 0em;
      }

      .cls-2 {
        fill: #316558;
      }

      .cls-3 {
        letter-spacing: -.01em;
      }

      .cls-4 {
        font-family: TimesNewRomanPSMT, 'Times New Roman';
        font-size: 6.92px;
      }

      .cls-5 {
        fill: #a5b3a6;
      }
    </style>
  </defs>
  <g id="Livello_1-2" data-name="Livello_1">
    <path d="M12.23.06c-.09.1-1.05,2.26-1.21,2.72-.15.44-.25.76-.25.83,0,.03.06.08.14.12.22.11.82.56,1.01.75.18.18.21.3.12.38-.07.06-.17.02-.42-.21-.3-.26-.81-.59-.9-.59-.04,0-.04.44,0,.96.04.5.19,1.17.34,1.51.06.14.26.5.45.8.18.3.43.74.55.99.22.45.29.56.39.56.08,0,.09-.07.04-.54-.02-.24-.06-.92-.07-1.51-.02-.59-.04-1.2-.06-1.36-.02-.16-.04-.51-.06-.78-.03-.58-.08-.81-.23-1.07-.2-.33-.18-.62.03-.82.16-.16.3-.18.51-.08.31.16.41.49.23.76-.05.07-.12.15-.17.18-.05.03-.1.07-.11.08-.02.03.13.49.18.55.06.08.14.04.34-.18.17-.19.5-.49.9-.83l.1-.08-.22-.48c-.12-.27-.3-.62-.41-.78-.21-.35-.53-.94-.78-1.45-.25-.5-.31-.56-.43-.43Z"/>
    <path d="M14.05,3.81c-.08.05-.87.75-1.06.94l-.16.16.04.62c.02.34.05.98.07,1.42.05,1.23.08,1.73.11,1.81.07.13.13.06.23-.29.1-.33.36-.92.58-1.36.14-.28.28-.63.34-.87.16-.69.18-2.14.03-2.4-.05-.08-.08-.08-.17-.03Z"/>
    <path class="cls-2" d="M15.71,4.11s-.06.08-.06.17c0,.14.02.18.11.23.1.05.15.04.23-.04.1-.11.1-.25,0-.33-.09-.08-.18-.09-.27-.02Z"/>
    <path class="cls-2" d="M9.08,4.15s-.05.08-.06.15c-.01.1,0,.14.06.22.06.08.08.09.18.07.18-.04.22-.22.09-.36-.05-.05-.1-.07-.13-.07-.03,0-.05,0-.05-.01,0-.04-.03-.04-.08,0Z"/>
    <path d="M12.38,4.46s0,.04.02.02c0-.02,0-.05,0-.06,0-.01-.02,0-.01.04Z"/>
    <path d="M12.42,4.85c.04.3.07.38.06.15,0-.12-.03-.24-.04-.26-.02-.03-.03,0-.01.11Z"/>
    <path d="M19.32,5.86c-.06.03-.19.09-.3.13-.24.09-.74.35-1.14.58-.16.09-.4.23-.53.31-.59.34-.86.53-1.1.75-.04.03-.17.15-.29.26-.12.11-.3.28-.4.4-.2.24-.6.83-.82,1.25-.08.16-.19.33-.22.39-.12.18-.43.82-.55,1.13-.08.23-.11.35-.12.53,0,.27-.05.45-.16.69-.05.1-.11.26-.14.35-.08.25-.32,1.23-.34,1.41-.02.14-.01.15.04.15.13,0,.32-.33.34-.61.03-.27.06-.43.15-.62.1-.23.46-.66.74-.92.44-.39.72-.65.83-.77.26-.27.9-.7,1.36-.9.22-.1.43-.24.78-.55.36-.31.59-.47.76-.54.08-.03.16-.07.18-.08.06-.04.6-.19,1.07-.29.48-.1.75-.12,1.81-.18.51-.03.54-.04.48-.22-.02-.07-.09-.18-.15-.25l-.11-.13-.34.02c-.68.04-1.19.09-1.34.12-.08.02-.23.04-.34.06-.48.08-1.14.38-1.97.88-.19.12-.57.34-.84.48s-.56.32-.65.38c-.08.06-.21.14-.27.18-.23.12-.73.59-1.25,1.17-.3.33-.55.59-.57.59-.04,0-.03-.09.03-.22.09-.19.66-1.06.87-1.32.24-.3.48-.5.8-.67.13-.07.27-.15.3-.19.04-.03.11-.09.18-.14.06-.04.13-.09.16-.12.02-.02.11-.08.19-.12.08-.04.19-.11.24-.16.05-.05.1-.09.11-.09s.12-.07.25-.15c.51-.35,1.56-.85,2.27-1.08.33-.11.97-.26,1.26-.3.23-.04.24-.04.24-.12,0-.11-.16-.41-.23-.43-.17-.06-1.48.3-2.16.59-.46.2-1.46.78-1.79,1.05-.37.3-.83.61-1.02.68-.16.06.12-.39.46-.74.27-.29.51-.51.55-.51.01,0,.07-.04.13-.1.06-.05.2-.15.31-.22.11-.07.3-.19.42-.26.51-.32.9-.54,1.01-.57.07-.02.29-.11.49-.19.2-.09.46-.18.56-.2.11-.02.2-.06.21-.08.01-.04-.12-.44-.17-.51-.04-.05-.13-.05-.26.01ZM15.5,9.36s-.04.03-.04,0c0-.04.04-.08.06-.06,0,0,0,.04-.02.05Z"/>
    <path d="M6.33,6.29c-.12.13-.14.22-.06.31.03.03.25.16.49.28.48.25.51.28,1.35.92.61.47,1.05.87,1.35,1.24.11.13.41.49.67.78.52.6.68.81.84,1.07.1.17.16.38.12.42-.03.03-.17-.06-.33-.21-.37-.36-1.14-.95-1.39-1.07-.2-.09-.55-.21-.88-.31-.15-.04-.29-.09-.32-.11s-.16-.06-.31-.1c-.14-.04-.28-.08-.31-.09s-.06-.02-.07-.02c-.01,0-.07-.02-.11-.03-.06-.02-.1,0-.14.03-.08.08-.49.07-1.15-.02-.27-.04-.87-.08-1.33-.1-.9-.04-1.04-.02-1.32.13-.11.06-.23.25-.23.38,0,.14.02.15,1.56.14,1.04,0,1.23,0,1.94.12.11.02.32.04.47.06.56.07.87.14,1.53.34.45.14.76.29,1.31.65.08.05.29.18.47.29.57.35.64.41.97.87.36.5.37.52.41.8.02.14.08.31.17.5.07.16.14.34.15.39.02.12.11.15.19.07.06-.06.05-.17-.03-.49-.03-.1-.06-.26-.09-.37-.12-.54-.27-.96-.5-1.49-.09-.2-.2-.46-.23-.58-.11-.33-.31-.76-.51-1.06s-1.15-1.43-1.43-1.7c-.1-.09-.25-.24-.34-.33-.09-.09-.22-.21-.28-.27s-.12-.12-.13-.13c-.03-.03-.88-.68-1.06-.81-.14-.1-1.24-.66-1.3-.66,0,0-.06.05-.13.12Z"/>
    <path d="M5.17,7.12c-.12.09-.2.26-.18.33.02.05.26.15.54.23.1.03.26.07.36.1.43.12,1.1.45,1.46.72.18.13.32.22.79.51.31.19,1.15.64,1.23.66.08.02.09.01.09-.05,0-.1-.04-.15-.44-.56-.33-.34-.59-.55-.88-.71-.08-.04-.34-.2-.58-.35-.6-.38-1.28-.7-1.87-.89-.33-.1-.39-.1-.53.01Z"/>
    <path d="M4.3,8.2c-.09.06-.19.18-.19.24,0,.13.14.17,1.01.32.36.06.86.16,1.11.22.26.06.57.13.69.15.25.04.79.03.8-.02,0-.02-.02-.04-.05-.04-.03,0-.08-.04-.1-.07-.09-.11-.69-.38-1.11-.51-.63-.19-.76-.22-1.21-.29-.53-.08-.82-.08-.94,0Z"/>
    <path d="M20.28,9.33c-.18.02-.45.05-.6.07-.14.03-.34.06-.42.07-.43.05-.95.2-1.4.4-.09.04-.24.1-.34.14-.1.04-.2.09-.23.11q-.06.04,0,.04c.05,0,.05,0,0,.03-.11.05-.08.09.09.11.19.03.27.02,1.2-.16,1.11-.21,2.05-.26,2.83-.16.48.06.97.06,1,0,0-.03-.03-.14-.08-.26-.15-.34-.17-.34-1.04-.38-.28,0-.54-.02-.58-.03-.04,0-.22,0-.41.02Z"/>
    <path d="M12.56,9.41c-.17.1-.28.21-.35.36-.04.09-.07.19-.07.22,0,.21.54.51.8.44.16-.04.34-.34.34-.57,0-.17-.12-.37-.27-.45-.13-.07-.33-.07-.44,0Z"/>
    <path d="M4.13,10.43s-.37.03-.74.04c-.77.03-.85.05-.92.24-.06.15-.05.35,0,.4.04.04.18.03.75,0,1.85-.12,3.92.01,4.97.31.74.21,1.91.73,2.38,1.06.17.12.28.28.23.34-.05.06-.52-.12-1.21-.46-.68-.34-.8-.38-1.21-.48-.15-.04-.42-.1-.6-.14-.47-.12-2.04-.24-3-.24-.45,0-1.25.05-2.04.13-.32.04-.39.05-.46.12-.09.08-.14.29-.1.44l.02.09.43-.02c.24-.01.59-.04.78-.05,1.12-.09,1.77-.11,2.76-.07,1.41.05,1.75.1,2.74.41.43.13,1.01.33,1.3.44.57.22,1.17.4,1.35.4.09,0,.12-.02.14-.07.03-.06.01-.1-.13-.27-.09-.11-.36-.4-.59-.64-.54-.57-.73-.69-1.76-1.18-.61-.29-.93-.41-1.24-.46-.12-.02-.41-.07-.66-.12-.24-.04-.65-.1-.9-.13-.67-.07-2.07-.13-2.28-.09Z"/>
    <path d="M19.39,10.56c-.58.05-.62.05-1.55.22-.86.15-1.16.21-1.23.24-.03.01-.17.07-.31.13-.37.16-.77.43-1.44.99-.11.09-.66.69-.73.8-.17.26-.46.74-.45.77.01.04.55-.35.74-.55.09-.09.32-.31.86-.81.29-.27.8-.58,1.23-.73.45-.17,1.33-.34,2.33-.46.79-.09,2.45-.06,3.24.07.17.03.43.05.57.05h.26s0-.2,0-.2c0-.13-.02-.23-.05-.26-.06-.08-.47-.18-1.05-.25-.57-.08-1.55-.08-2.42-.01Z"/>
    <path d="M19.06,11.6c-.86.09-1.96.27-2.32.39-.16.05-.59.26-1.15.57-.02.01-.06.05-.07.08-.08.14.22.2.46.09.51-.24.9-.33,1.86-.45,1.61-.19,2.76-.18,4.75.08.23.03.43.04.46.04.06-.02.06-.34,0-.41-.08-.12-.53-.23-1.34-.33-.47-.06-2.24-.09-2.66-.04Z"/>
    <path d="M4.39,12.59c-.53.02-1.13.07-1.9.16-.4.04-.67.12-.73.19-.06.07-.09.37-.04.44.03.05-.03.05,1.21-.08,1.72-.18,4.04-.22,5.18-.1,1.18.13,1.82.28,2.43.58.37.18.64.28,1.05.38.37.1.43.07.23-.12-.31-.29-.73-.51-1.51-.78-.24-.08-.56-.2-.72-.26s-.36-.12-.44-.13c-.08,0-.2-.03-.28-.05-.07-.01-.23-.04-.35-.06-.12-.02-.28-.05-.36-.07-.56-.12-2.48-.18-3.77-.12Z"/>
    <path d="M18.78,12.62c-.63.03-1.03.07-1.69.18-.26.04-.52.09-.58.1-.2.03-.4.08-.77.2-.2.07-.48.16-.62.2-.54.18-1.11.5-1.25.71-.08.12-.18.45-.15.47.01,0,.14-.08.28-.19.27-.22.39-.3.58-.37.06-.02.25-.1.43-.18.47-.21,1.06-.36,1.69-.43,1.03-.12,1.19-.13,2.22-.13,1.5,0,2.57.06,3.75.23.55.08.64.08.71,0,.04-.05.05-.09.03-.21-.02-.17-.04-.19-.25-.25-.86-.27-2.68-.41-4.38-.34Z"/>
    <path d="M11.8,13.29s.02.03.03.03c0,0,.01-.02.01-.03,0-.02-.01-.03-.03-.03-.01,0-.02.01-.01.03Z"/>
    <path d="M4.6,13.58c-1.01.07-1.74.13-1.91.16-.11.02-.37.04-.59.06-.46.04-.58.08-.63.22-.07.17-.06.29.03.36.08.06.1.06.6.03.29-.02.67-.05.86-.07,1.31-.12,3.71-.21,4.83-.18.91.02,1.86.11,2.28.21.14.03.46.13.71.22.71.26.81.28.85.2.08-.16-.25-.38-.93-.64-.67-.25-1.16-.39-1.68-.46-.27-.04-.57-.08-.66-.1-.22-.04-3.25-.06-3.75-.02Z"/>
    <path d="M17.95,13.61c-.99.06-1.77.16-2.28.29-.41.11-.6.19-1.07.45-.18.1-.41.21-.5.26-.1.04-.19.09-.2.12-.03.07.02.2.09.28l.07.08.13-.08c.19-.12.64-.36.94-.48.18-.08.75-.19,1.25-.24.16-.02.88-.04,1.59-.06,1.58-.03,2.87,0,4.79.15.51.04.74.04.77.02.12-.08.04-.37-.12-.42-.27-.09-.69-.16-1.56-.24-1.02-.1-3.15-.16-3.91-.12Z"/>
    <path class="cls-2" d="M12.59,14.66c-.22.09-.33.16-.45.29-.14.15-.2.29-.22.5-.01.14,0,.19.06.33.09.19.19.29.47.44.25.13.36.15.6.12.43-.07.71-.38.71-.77,0-.23-.06-.36-.28-.6-.31-.34-.56-.42-.88-.3Z"/>
    <path d="M6.47,14.67c-.61.01-1.29.04-1.52.06-.23.02-.63.04-.88.04-.43,0-1.38.05-2.24.13-.21.02-.57.02-.82.01-.55-.03-.65,0-.84.21-.15.17-.2.33-.15.48.05.16.14.18.87.18.63,0,2.39-.06,2.87-.09.12,0,.77-.03,1.44-.05,3.33-.09,4.23-.08,4.58.06.31.12.63.41.91.82.32.47.75.83,1.23,1.05.43.19.57.22,1.02.22s.53-.02,1.03-.31c.33-.19.66-.53.89-.91.35-.57.7-.78,1.52-.89.4-.05.77-.06,4.09-.06,2.58,0,3.71-.01,3.85-.04.27-.05.38-.12.39-.27.02-.24-.08-.43-.29-.49-.04-.02-.76-.04-1.61-.05-.84-.02-2.14-.04-2.89-.06s-1.59-.03-1.87-.02c-.28,0-.77.02-1.08.03-.63.02-1.18.1-1.52.22-.29.1-1.04.59-1.15.75-.05.06-.13.21-.18.33-.12.27-.39.58-.62.7-.22.12-.48.16-.75.13-.27-.03-.4-.07-.65-.24-.29-.18-.52-.43-.75-.81-.21-.34-.4-.57-.6-.71-.49-.37-1.64-.48-4.29-.42Z"/>
    <path class="cls-5" d="M1.39,17.18s0,.48.02.48c0,0,.03-.03.03-.06.01-.05.01-.05.02,0,0,.05.18.05,3.67.05h3.67s0-.25,0-.25v-.25s-3.69,0-3.69,0c-2.09,0-3.69,0-3.7.02ZM1.45,17.38s-.01,0-.01-.07,0-.11.01-.07c0,.04,0,.11,0,.14Z"/>
    <path class="cls-5" d="M16.56,17.19s-.01.13,0,.26v.22h7.38v-.25s-.02-.25-.02-.25h-3.67c-2.36-.01-3.67,0-3.69.02Z"/>
    <text class="cls-4" transform="translate(0 24.09)"><tspan class="cls-1" x="0" y="0">INCIPI</tspan><tspan class="cls-3" x="20.61" y="0">T</tspan></text>
  </g>
</svg>